<mxfile host="app.diagrams.net" modified="2023-06-01T16:41:16.913Z" agent="Mozilla/5.0 (Macintosh; Intel Mac OS X 10_15_7) AppleWebKit/537.36 (KHTML, like Gecko) Chrome/113.0.0.0 Safari/537.36" version="21.2.4" etag="3kmAdPjo7u9a93Zn5xCC" type="github">
  <diagram name="Page-1" id="Rm6N8X1NIEcwsHehwuRo">
    <mxGraphModel>
      <root>
        <mxCell id="0" />
        <mxCell id="1" parent="0" />
      </root>
    </mxGraphModel>
  </diagram>
</mxfile>
